<svg width="206" height="231" viewBox="0 0 206 231" fill="none" xmlns="http://www.w3.org/2000/svg">
  <path d="M143.143 84C143.143 96.1503 133.293 106 121.143 106C108.992 106 99.1426 96.1503 99.1426 84C99.1426 71.8497 108.992 62 121.143 62C133.293 62 143.143 71.8497 143.143 84Z" fill="#24C8DB"/>
  <ellipse cx="84.1426" cy="147" rx="22" ry="22" transform="rotate(180 84.1426 147)" fill="#24C8DB"/>
  <path fill-rule="evenodd" clip-rule="evenodd" d="M166.738 154.548C157.86 160.286 148.237 164.091 138.247 166.009C140.858 168.577 143.096 171.463 144.935 174.587C149.003 181.518 151.245 189.348 151.48 197.378C165.642 193.521 178.675 186.486 189.667 176.754C190.792 175.767 191.893 174.747 192.97 173.696C199.479 167.426 202.271 158.587 202.744 149.596C203.124 142.315 201.859 134.827 200.203 127.893C200.004 127.069 199.799 126.245 199.586 125.422C197.769 118.588 195.592 111.614 192.233 105.621C188.915 99.7033 184.197 94.6792 177.544 92.5061C171.604 90.5568 165.368 91.2288 159.149 92.8448C151.106 94.9385 143.18 98.8797 135.472 103.009C134.269 103.664 133.071 104.326 131.879 104.986C122.042 110.415 112.596 115.626 103.183 118.005C98.6176 119.154 94.1206 119.658 89.5494 119.151C85.0545 118.652 80.8086 117.171 76.4524 114.58C73.2685 112.683 70.3093 110.299 67.5579 107.63C57.6062 113.402 48.8968 121.111 42.1759 130.23C42.7562 130.658 43.3421 131.077 43.9337 131.486C51.5452 136.742 59.7927 140.991 68.3431 142.531C72.1641 143.206 76.1076 143.334 80.0972 142.696C84.1157 142.053 88.2415 140.62 92.4316 138.155C99.1291 134.214 106.072 127.993 113.42 120.027C114.423 118.924 115.437 117.785 116.461 116.636C118.661 114.169 120.899 111.66 123.217 109.268C126.371 105.998 129.866 102.724 133.826 100.059C138.779 96.7088 144.534 94.3991 151.207 94.9633C157.711 95.5132 163.102 98.7837 167.124 102.893C173.531 109.458 177.647 118.316 180.467 126.672C183.401 135.371 185.064 143.859 185.065 150.29C185.066 153.235 184.665 155.643 183.981 157.486C183.313 159.287 182.323 160.631 180.963 161.635C178.744 163.273 175.614 163.727 172.034 163.591C168.537 163.458 164.766 162.766 161.206 162.052C159.616 161.733 158.068 161.41 156.596 161.103C153.623 160.483 150.937 159.925 148.624 159.685C147.414 159.56 146.344 159.525 145.41 159.589C144.556 159.648 143.728 159.811 143.022 160.156C142.233 160.541 141.593 161.128 141.134 161.97C140.714 162.74 140.425 163.765 140.244 165.068C138.063 165.17 135.873 165.16 133.681 165.039C133.975 163.054 134.472 161.193 135.244 159.533C136.1 157.692 137.328 156.038 139.062 154.764C140.85 153.449 142.909 152.746 145.055 152.579C147.12 152.418 149.158 152.699 151.074 153.047C153.343 153.46 155.795 154.037 158.404 154.651C161.152 155.297 164.071 155.983 167.07 156.487C166.961 155.83 166.856 155.181 166.738 154.548Z" fill="#24C8DB"/>
  <path fill-rule="evenodd" clip-rule="evenodd" d="M38.4045 76.4519C47.2828 70.714 56.906 66.9088 66.8958 64.991C64.285 62.4226 62.0472 59.537 60.208 56.4127C56.1402 49.4816 53.8979 41.6516 53.6631 33.622C39.5006 37.4787 26.4675 44.5142 15.4762 54.2466C14.3514 55.2327 13.2497 56.2525 12.1725 57.3041C5.66367 63.574 2.87173 72.4133 2.39884 81.4043C2.01913 88.6853 3.28377 96.1728 4.93968 103.107C5.13924 103.931 5.34365 104.755 5.55659 105.578C7.3735 112.412 9.55068 119.386 12.9097 125.379C16.2277 131.297 20.946 136.321 27.5987 138.494C33.5391 140.443 39.7746 139.771 45.9934 138.155C54.0365 136.062 61.9625 132.12 69.6711 127.991C70.8744 127.336 72.0719 126.674 73.264 126.014C83.1003 120.585 92.5463 115.374 101.96 112.995C106.525 111.846 111.022 111.342 115.593 111.849C120.088 112.348 124.334 113.829 128.69 116.42C131.874 118.317 134.833 120.701 137.585 123.37C147.536 117.598 156.246 109.889 162.967 100.77C162.386 100.342 161.8 99.9232 161.209 99.5143C153.597 94.2584 145.35 90.0086 136.8 88.4691C132.979 87.7944 129.035 87.6661 125.045 88.304C121.027 88.9474 116.901 90.3805 112.711 92.845C106.014 96.7864 99.0701 103.007 91.7224 110.973C90.7196 112.076 89.7063 113.215 88.6821 114.364C86.4819 116.831 84.2436 119.34 81.9255 121.732C78.7714 125.002 75.2765 128.276 71.3169 130.941C66.3631 134.291 60.6091 136.601 53.936 136.037C47.4323 135.487 42.0413 132.216 38.0188 128.107C31.6118 121.542 27.4958 112.684 24.6756 104.328C21.7418 95.6295 20.0789 87.1415 20.0777 80.7103C20.077 77.7651 20.4779 75.3571 21.1623 73.5141C21.8302 71.7129 22.82 70.3693 24.1799 69.3648C26.3992 67.7273 29.5292 67.2732 33.1089 67.4092C36.6058 67.5422 40.3771 68.2342 43.9369 68.9481C45.5269 69.2674 47.0754 69.5905 48.5469 69.8972C51.5201 70.517 54.2064 71.0749 56.5188 71.3155C57.7293 71.4401 58.7989 71.475 59.7326 71.4109C60.5865 71.3519 61.4146 71.189 62.1206 70.844C62.9094 70.459 63.5504 69.8724 64.0083 69.0302C64.4285 68.2599 64.718 67.2349 64.8987 65.9323C67.0799 65.8304 69.2703 65.8404 71.4621 65.9607C71.1685 67.946 70.6717 69.8074 69.8996 71.4671C69.043 73.3078 67.8153 74.9622 66.0811 76.2361C64.2928 77.5512 62.2336 78.2537 60.0876 78.4214C58.0229 78.5822 55.9848 78.3006 54.0693 77.9527C51.8003 77.5399 49.348 76.9628 46.739 76.3491C43.9909 75.703 41.0719 75.0166 38.0729 74.5128C38.1817 75.1699 38.2872 75.8188 38.4045 76.4519Z" fill="#24C8DB"/>
</svg>

